<?xml version="1.0" encoding="UTF-8" standalone="no"?>
<!-- Generator: Adobe Illustrator 19.2.1, SVG Export Plug-In . SVG Version: 6.00 Build 0)  -->

<svg
   version="1.1"
   id="Layer_1"
   x="0px"
   y="0px"
   width="15px"
   height="15px"
   viewBox="0 0 15 15"
   style="enable-background:new 0 0 15 15;"
   xml:space="preserve"
   xmlns="http://www.w3.org/2000/svg"
   xmlns:svg="http://www.w3.org/2000/svg"><defs
   id="defs7" />
<path
   d="m 6.5,5.5007582 v 2 H 0 v -2 z m 2,0 v 2 H 15 v -2 z m -7.5,3 v 4.4999998 c 0,0.8284 0.6716,1.5 1.5,1.5 h 4 V 8.5007582 Z m 7.5,0 v 5.9999998 h 4 c 0.8284,0 1.5,-0.6716 1.5,-1.5 V 8.5007582 Z m 2,-7.99999997 c -1.4033,-0.0444 -2.6497,0.89039997 -3,2.24999997 -0.3503,-1.3596 -1.5967,-2.29439997 -3,-2.24999997 -1.0709,-0.0337 -1.9663,0.80719997 -2,1.87809997 -0.0013,0.0406 -0.0013,0.0813 0,0.1219 -0.1557,0.9427 0.4822,1.8331 1.4249,1.9888 0.1604,0.0265 0.3237,0.0303 0.4851,0.0112 h 6.13 c 0.9548,0.1497 1.8503,-0.5029 2,-1.4577 0.0282,-0.1797 0.0282,-0.3626 0,-0.5423 2e-4,-1.1046 -0.895,-2.00019997 -1.9996,-2.00039997 -0.0135,0 -0.0269,10e-5 -0.0404,4e-4 z m -6,2.99999997 c -0.506,0.0463 -0.9537,-0.3264 -1,-0.8323 -0.0051,-0.0558 -0.0051,-0.1119 0,-0.1677 -0.0463,-0.506 0.3264,-0.9537 0.8323,-1 0.0558,-0.0051 0.1119,-0.0051 0.1677,0 1.1046,0 2,0.8954 2,2 z m 6,0 h -2 c 0,-1.1046 0.8954,-2 2,-2 0.5523,0 1,0.4477 1,1 0.0463,0.506 -0.3264,0.9537 -0.8323,1 -0.0558,0.0051 -0.1119,0.0051 -0.1677,0 z"
   id="path2"
   style="fill:#f57c00;fill-opacity:1" />
</svg>
